<?xml version="1.0" encoding="utf-8"?>
<!-- Generator: Adobe Illustrator 17.0.0, SVG Export Plug-In . SVG Version: 6.00 Build 0)  -->
<!DOCTYPE svg PUBLIC "-//W3C//DTD SVG 1.1//EN" "http://www.w3.org/Graphics/SVG/1.1/DTD/svg11.dtd">
<svg version="1.1" id="Layer_1" xmlns="http://www.w3.org/2000/svg" xmlns:xlink="http://www.w3.org/1999/xlink" x="0px" y="0px"
	 width="1400px" height="980px" viewBox="0 0 1400 980" enable-background="new 0 0 1400 980" xml:space="preserve">
<g>
	<path fill="#DBE9F0" d="M1267.238,581c0,55.781-135.16,232-566.238,232c-416.743,0-566.238-176.219-566.238-232
		c0-48.912,116.729-64,566.238-64C1164.844,517,1267.238,523.089,1267.238,581z"/>
</g>
<g>
	<path fill="#C4DAE6" d="M1126.333,569.333c0-4.832-11.37-8.75-13.764-8.75H830.584c-2.393,0-10.251,3.918-10.251,8.75l0,0
		c0,4.833,1.94,8.75,4.333,8.75H1122C1124.393,578.083,1126.333,574.166,1126.333,569.333L1126.333,569.333z"/>
</g>
<g>
	<path fill="#B4D9DB" d="M821.574,556c-14.602,0,0-54.329,0-54.329c0-14.121,12.307-25.569,27.489-25.569h128.502
		c15.182,0,27.489,11.448,27.489,25.569V556C1005.054,556,861,556,821.574,556z"/>
</g>
<g>
	<path fill="#B4D9DB" d="M1138.674,516.688c0,21.489-17.421,38.91-38.91,38.91H894.183c-21.489,0-38.91-17.421-38.91-38.91
		c0,0,27.702-52.167,37.317-82.676c7.41-23.512,21.379-38.91,42.869-38.91H1069c21.489,0,38.91,17.421,38.91,38.91
		C1107.91,469,1138.674,483,1138.674,516.688z"/>
</g>
<g>
	<path fill="#FFFFFF" d="M896.5,472c0,0,9.464-28.827,13.5-38c5.5-12.5,11.551-23,24-23h139.459
		c12.449,0,22.541,9.931,22.541,22.182V472"/>
</g>
<g>
	<path fill="#FCEAE6" d="M946.667,457.667c1.667,0.606,4.93,10.868,2,13.324c-2,1.676,15,1.343,15.333-0.908
		C964.981,463.459,946.667,457.667,946.667,457.667z"/>
</g>
<g>
	<path fill="#E3D4D1" d="M515.336,550.853c-3.569,8.529-35.026,9.68-37.013,15.812c-1.523,4.7,1.667,9.897,0.667,19.667
		c-1,9.77-2.219,16.89-4,28c-0.54,3.366-9.485,7.334-13.454,6.22c-3.969-1.113,2.453-5.816,2.533-10.804
		c0.111-6.897-6.191-45.237-4.997-52.87c1.144-7.311,27.14-20.501,34.679-24.826C501.291,527.727,519.616,540.625,515.336,550.853z"
		/>
</g>
<g>
	<path fill="#793E28" d="M475.177,615.935c0.5,2.67,1.231,8.171-1.688,8.988c-2.919,0.818-13.89,2.18-21.404,1.363
		c-4.118-0.448-6.426-2.635-5.38-4.609c1.046-1.973,9.64-4.656,11.583-5.861s2.989-3.179,4.619-1.872
		c1.63,1.307-0.348,3.98,2.872,4.567C471.897,619.626,475.177,615.935,475.177,615.935z"/>
</g>
<g>
	<ellipse fill="#C4DAE6" cx="471.657" cy="675.998" rx="104.667" ry="5.667"/>
</g>
<g>
	<path fill="#797373" d="M396.95,676.304c-26.584,0-48.213-21.628-48.213-48.213s21.628-48.213,48.213-48.213
		s48.213,21.628,48.213,48.213S423.535,676.304,396.95,676.304z M396.95,586.878c-22.725,0-41.213,18.488-41.213,41.213
		s18.488,41.213,41.213,41.213s41.213-18.488,41.213-41.213S419.675,586.878,396.95,586.878z"/>
</g>
<g>
	<circle fill="#B4D9DB" cx="396.95" cy="628.091" r="8.745"/>
</g>
<g>
	<circle fill="#FBC58D" cx="476.958" cy="628.091" r="8.745"/>
</g>
<g>
	<path fill="#797373" d="M545.767,676.304c-26.585,0-48.213-21.628-48.213-48.213s21.628-48.213,48.213-48.213
		c26.584,0,48.213,21.628,48.213,48.213S572.352,676.304,545.767,676.304z M545.767,586.878c-22.725,0-41.213,18.488-41.213,41.213
		s18.488,41.213,41.213,41.213s41.213-18.488,41.213-41.213S568.492,586.878,545.767,586.878z"/>
</g>
<g>
	<circle fill="#B4D9DB" cx="545.767" cy="628.091" r="8.745"/>
</g>
<g>
	<path fill="#FBC58D" d="M545.787,631.091c-0.007,0-0.013,0-0.02,0h-68.171c-0.816,0-1.597-0.333-2.163-0.921l-53.808-55.989
		c-0.833-0.867-1.068-2.148-0.597-3.255s1.558-1.824,2.76-1.824h70.782c0.842,0,1.646,0.354,2.214,0.976l51.005,55.779
		c0.612,0.55,0.998,1.347,0.998,2.234C548.787,629.748,547.444,631.091,545.787,631.091z M478.874,625.091h60.085l-45.71-49.989
		h-62.417L478.874,625.091z"/>
</g>
<g>
	<path fill="#FBC58D" d="M396.949,631.092c-0.409,0-0.824-0.084-1.222-0.262c-1.513-0.676-2.191-2.45-1.516-3.963l36.615-81.981
		c-1.486-0.061-3.6-0.107-6.593-0.107c-1.657,0-3-1.343-3-3s1.343-3,3-3c4.649,0,7.991,0.108,9.932,0.323
		c1.152,0.128,3.85,0.426,4.054,3.055c0.039,0.499-0.048,0.999-0.252,1.456l-38.277,85.702
		C399.191,630.43,398.096,631.092,396.949,631.092z"/>
</g>
<g>
	<path fill="#FBC58D" d="M472.403,626.918c0-1.666-1.351-3.016-3.016-3.016h-10.558c-1.666,0-3.016,1.35-3.016,3.016l0,0
		c0,1.666,1.35,3.016,3.016,3.016h10.558C471.052,629.934,472.403,628.584,472.403,626.918L472.403,626.918z"/>
</g>
<g>
	<path fill="#FBC58D" d="M483.422,650.666c0-1.666-1.351-3.016-3.016-3.016h-10.558c-1.666,0-3.016,1.35-3.016,3.016l0,0
		c0,1.666,1.35,3.016,3.016,3.016h10.558C482.071,653.682,483.422,652.332,483.422,650.666L483.422,650.666z"/>
</g>
<g>
	<path fill="#FBC58D" d="M475.529,651.655c-1.657,0-3-1.343-3-3v-18.602c0-1.657,1.343-3,3-3s3,1.343,3,3v18.602
		C478.529,650.312,477.186,651.655,475.529,651.655z"/>
</g>
<g>
	<ellipse fill="#C4DAE6" cx="682.99" cy="705.998" rx="104.667" ry="5.667"/>
</g>
<g>
	<path fill="#E3D4D1" d="M720.04,516.961c2.452,4.173-12.493,33.249-16.881,39.618c-4.388,6.369-47.053,12.722-51.184,14.473
		c-4.13,1.751-7.68-0.351-8.762-3.95c-1.083-3.599,0.684-5.7,5.301-6.305c2.716-0.356,5.478,0.383,8.533-1.814
		c3.055-2.197,31.055-13.564,32.557-14.201c1.502-0.637,13.284-30.136,19.266-33.638C715.7,507.145,716.859,511.547,720.04,516.961z
		"/>
</g>
<g>
	<path fill="#E3D4D1" d="M711.918,576.245c-3.047,9.474-11.739,33.163-13.352,39.936c-1.236,5.192,0.969,8.915,0.561,19.564
		c-0.408,10.65-1.795,20.765-2.901,32.917c-0.335,3.682-10.125,6.7-14.154,5.754c-4.029-0.946,2.097-6.461,1.876-11.87
		c-0.305-7.479-8.912-48.6-8.181-56.947c0.7-7.995,9.848-34.17,17.112-39.351C700.143,561.068,715.572,564.883,711.918,576.245z"/>
</g>
<g>
	<path fill="#793E28" d="M697.584,668.481c0.375,2.92,0.849,8.92-2.105,9.659s-13.976,1.661-21.444,0.395
		c-4.093-0.694-6.297-3.182-5.159-5.269c1.137-2.087,9.846-4.56,11.844-5.768c1.997-1.208,3.134-3.295,4.701-1.796
		s-0.533,4.297,2.656,5.096C694.135,672.317,697.584,668.481,697.584,668.481z"/>
</g>
<g>
	<path fill="#FCEAE6" d="M714.99,478.332c-2.447-9.86-7.21-14.515-18.334-13.797c-7.775,0.502-15.802,8.175-13.708,17.935
		c0.788,3.673-0.097,5.754,0.394,8.486c1.037,5.778,2.737,14.137,8.982,13.815c3.015-0.155,11.962,0.366,16.51-2.18
		C715.792,498.696,717.86,489.896,714.99,478.332z"/>
</g>
<g>
	<path fill="#FCEAE6" d="M710.17,512.57c-6.863,1.312-9.921-6.721-13.464-16.626c-1.891-5.286,12.557-5.241,18.015,5.34
		C720.323,512.143,719.472,510.791,710.17,512.57z"/>
</g>
<g>
	<path fill="#3A0A27" d="M685.99,487.386c-0.138,0.856,0.591,1.381,1.263,1.209c0.785-0.201,0.718-0.782,1.448-0.917
		c0.565-0.105-0.583-0.631-1.668-0.863c-0.667-0.143-1.073-0.162-1.743,0.059C684.522,487.127,686.044,487.057,685.99,487.386z"/>
</g>
<g>
	<path fill="#3A0A27" d="M688.752,484.428c0.565-0.105-0.583-0.631-1.668-0.863c-0.667-0.143-1.073-0.162-1.743,0.059
		C684.573,483.877,688.022,484.564,688.752,484.428z"/>
</g>
<g>
	<path fill="#FCEAE6" d="M687.233,487.994c0.062-0.298,0.49-0.474,0.955-0.393c0.465,0.081,0.792,0.388,0.73,0.686
		c-0.062,0.298-0.49,0.474-0.955,0.393S687.171,488.292,687.233,487.994z"/>
</g>
<g>
	<path fill="#FCEAE6" d="M682.956,493.775c-1.604-0.042-1.845-1.807-0.708-2.409c1.137-0.602,0.616-3.632,1.344-3.67
		C684.32,487.658,685.588,493.843,682.956,493.775z"/>
</g>
<g>
	<path fill="#EF97AD" d="M684.811,496.501c0.699-0.04,1.668,0.154,2.896-0.092c0.339-0.068-0.608,1.711-1.805,1.833
		c-1.612,0.163-0.899-0.988-0.899-0.988S683.98,496.549,684.811,496.501z"/>
</g>
<g>
	<path fill="#55283C" d="M608.284,706.304c-26.585,0-48.213-21.628-48.213-48.213s21.628-48.213,48.213-48.213
		c26.584,0,48.213,21.628,48.213,48.213S634.868,706.304,608.284,706.304z M608.284,616.878c-22.725,0-41.213,18.488-41.213,41.213
		s18.488,41.213,41.213,41.213s41.213-18.488,41.213-41.213S631.009,616.878,608.284,616.878z"/>
</g>
<g>
	<circle fill="#E9AF8E" cx="608.284" cy="658.091" r="8.745"/>
</g>
<g>
	<circle fill="#E53F60" cx="688.292" cy="658.091" r="8.745"/>
</g>
<g>
	<path fill="#55283C" d="M757.101,706.304c-26.585,0-48.214-21.628-48.214-48.213s21.629-48.213,48.214-48.213
		s48.213,21.628,48.213,48.213S783.686,706.304,757.101,706.304z M757.101,616.878c-22.726,0-41.214,18.488-41.214,41.213
		s18.488,41.213,41.214,41.213c22.725,0,41.213-18.488,41.213-41.213S779.825,616.878,757.101,616.878z"/>
</g>
<g>
	<circle fill="#E9AF8E" cx="757.1" cy="658.091" r="8.745"/>
</g>
<g>
	<path fill="#E53F60" d="M757.12,661.091c-0.006,0-0.014,0-0.02,0h-68.171c-0.816,0-1.597-0.333-2.163-0.921l-53.808-55.989
		c-0.833-0.867-1.068-2.148-0.597-3.255s1.558-1.824,2.76-1.824h70.782c0.842,0,1.646,0.354,2.214,0.976l51.006,55.779
		c0.612,0.55,0.997,1.347,0.997,2.234C760.12,659.748,758.777,661.091,757.12,661.091z M690.207,655.091h60.085l-45.711-49.989
		h-62.416L690.207,655.091z"/>
</g>
<g>
	<path fill="#E53F60" d="M608.282,661.092c-0.409,0-0.824-0.084-1.222-0.262c-1.513-0.676-2.191-2.45-1.516-3.963l36.615-81.981
		c-1.486-0.061-3.6-0.107-6.593-0.107c-1.657,0-3-1.343-3-3s1.343-3,3-3c4.649,0,7.991,0.108,9.932,0.323
		c1.152,0.128,3.85,0.426,4.054,3.055c0.039,0.499-0.048,0.999-0.252,1.456l-38.277,85.702
		C610.525,660.43,609.429,661.092,608.282,661.092z"/>
</g>
<g>
	<path fill="#FCEAE6" d="M726.67,580.853c-3.569,8.529-32.475,8.589-34.461,14.721c-1.523,4.7,0.838,10.671-0.162,20.441
		c-1,9.77-2.947,18.99-4.728,30.1c-0.54,3.366-10.479,5.55-14.449,4.437s2.453-5.816,2.533-10.804
		c0.111-6.897-6.191-45.237-4.997-52.87c1.144-7.311,27.14-20.501,34.679-24.826C712.624,557.727,730.95,570.625,726.67,580.853z"/>
</g>
<g>
	<path fill="#B4D9DB" d="M696.324,564.998c-10.913,4.244-22.917,6.662-24.34,13.26c-1.423,6.598,34.769,26.389,48.34,26.073
		s25.377-2.106,24.667-4.667c-0.71-2.56-6.96-34.205-9.089-41.886c-1.435-5.175-16.851-8.579-28.244-4.781
		C705.657,553.665,708.324,560.332,696.324,564.998z"/>
</g>
<g>
	<path fill="#E53F60" d="M683.736,656.918c0-1.666-1.35-3.016-3.016-3.016h-10.558c-1.666,0-3.016,1.35-3.016,3.016l0,0
		c0,1.666,1.351,3.016,3.016,3.016h10.558C682.386,659.934,683.736,658.584,683.736,656.918L683.736,656.918z"/>
</g>
<g>
	<path fill="#E53F60" d="M694.755,680.666c0-1.666-1.35-3.016-3.016-3.016h-10.558c-1.666,0-3.016,1.35-3.016,3.016l0,0
		c0,1.666,1.351,3.016,3.016,3.016h10.558C693.405,683.682,694.755,682.332,694.755,680.666L694.755,680.666z"/>
</g>
<g>
	<path fill="#793E28" d="M686.511,645.935c0.5,2.67,1.231,8.171-1.688,8.988c-2.919,0.818-13.89,2.18-21.404,1.363
		c-4.118-0.448-6.426-2.635-5.38-4.609c1.046-1.973,9.64-4.656,11.583-5.861c1.943-1.205,2.989-3.179,4.619-1.872
		c1.63,1.307-0.348,3.98,2.872,4.567C683.23,649.626,686.511,645.935,686.511,645.935z"/>
</g>
<g>
	<rect x="685.362" y="660.054" fill="#E53F60" width="3" height="18.602"/>
</g>
<g>
	<path fill="#FBC58D" d="M700.601,509.564c-4.324,4.022-6.81,17.423-2.044,26.478c6.703,12.736,2.588,21.611,9.767,24.956
		c7.179,3.345,26.886,0.725,26.886-6.648s-6.79-41.769-14.834-45.791C712.332,504.537,706.592,503.991,700.601,509.564z"/>
</g>
<g>
	<path fill="#FCEAE6" d="M710.321,519.284c2.366,3.866-14.741,32.021-19.622,38.303c-3.063,3.941-23.564,11.077-38.723,13.465
		c-9,1.418-15.442-1.308-17.08-0.614c-4.397,1.864-11.793,1.951-10.055-0.67c1.943-2.931,3.727-4.807,8.577-5.6
		c2.854-0.466,5.704,0.109,8.999-2.13c3.294-2.239,33.075-14.394,34.674-15.072c1.599-0.678,15.421-29.088,21.834-32.709
		C706.247,510.122,707.251,514.267,710.321,519.284z"/>
</g>
<g>
	<path fill="#E9AF8E" d="M692.222,521.63c0,0,5.698-1.676,9.72,0c4.022,1.676,7.374,7.374,7.374,7.374s6.627-10.979,5.363-14.412
		c-2.346-6.368-9.384-7.709-14.077-5.027C694.803,512.878,692.222,521.63,692.222,521.63z"/>
</g>
<g>
	<path fill="#565579" d="M678.634,474.066c-0.005,3.729,8.465,7.033,14.976,8.142c2.297,0.391,6.505,18.03,16.451,24.347
		c15.447,9.81,34.295,9.709,36.755,6.031c2.764-4.131-3.918-3.74-3.918-3.74s4.862-1.533,4.267-3.336
		c-1.19-3.605-5.142-2.027-5.142-2.027s3.623-2.177,3.193-4.655c-0.355-2.044-4.977-0.752-4.977-0.752s3.258-1.359,2.486-4.184
		c-0.66-2.413-5.18-1.269-5.18-1.269s3.713-1.337,2.928-3.909c-0.928-3.039-3.094-2.687-6.734-2.105
		c-13.325,2.129-10.625-22.296-32.605-23.807c-13.466-0.926-16.196,8.576-17.065,6.781
		C682.985,467.348,678.643,467.951,678.634,474.066z"/>
</g>
<g>
	<path fill="#FCEAE6" d="M516.657,549.665c-3.047,9.474-17.478,27.409-19.091,34.182c-1.236,5.192-3.168,9.169-3.576,19.818
		c-0.408,10.65-7.991,22.844-9.098,34.997c-0.335,3.682-8.539,6.616-12.569,5.67s1.985-3.221,1.764-8.63
		c-0.305-7.479,3.172-47.023,3.903-55.37c0.7-7.995,12.069-38.153,19.333-43.333C504.588,531.818,520.311,538.304,516.657,549.665z"
		/>
</g>
<g>
	<path fill="#55283C" d="M488.532,547.995l-7.208,19.004c0,0,4.108-0.496,11.098,1.764c2.341,0.757,10.235,6.569,10.235,6.569
		s15.311-18.571,21.211-25.028S498.795,535.864,488.532,547.995z"/>
</g>
<g>
	<path fill="#793E28" d="M484.892,638.662c0.375,2.92,2.208,8.739-0.746,9.478s-13.976,1.661-21.444,0.395
		c-4.093-0.694-6.297-3.182-5.159-5.269s9.846-4.56,11.843-5.768c1.997-1.208,3.134-3.295,4.701-1.796s-0.533,4.297,2.656,5.096
		C482.802,642.317,484.892,638.662,484.892,638.662z"/>
</g>
<g>
	<path fill="#55283C" d="M489.99,534.332c-10.667,6-16.849,9.424-20.667,11.333c-1.333,0.667,5.176,3.293,8,8
		c4,6.667,3.169,11.699,6.667,10c11.667-5.667,30.094-4.282,36.333-9.333c7-5.667,10-11.333,4.244-26.552
		c-1.9-5.023-16.851-8.579-28.244-4.781C494.324,523.665,501.212,528.019,489.99,534.332z"/>
</g>
<g>
	<path fill="#FCEAE6" d="M498.837,482.57c-6.863,1.312-9.921-6.721-13.464-16.626c-1.891-5.286,12.557-5.241,18.015,5.34
		C508.99,482.143,508.139,480.791,498.837,482.57z"/>
</g>
<g>
	<path fill="#E3D4D1" d="M508.707,486.961c2.452,4.173-12.493,33.249-16.881,39.618s-47.053,12.722-51.184,14.473
		c-4.13,1.751-7.679-0.351-8.762-3.95c-1.083-3.599,0.684-5.7,5.301-6.305c2.716-0.356,5.478,0.383,8.533-1.814
		c3.055-2.197,31.055-13.564,32.557-14.201c1.502-0.637,13.284-30.136,19.266-33.638
		C504.367,477.145,505.526,481.547,508.707,486.961z"/>
</g>
<g>
	<path fill="#B4D9DB" d="M489.268,479.564c-4.324,4.022-6.81,17.423-2.044,26.478c6.703,12.736,2.588,21.611,9.767,24.956
		c7.179,3.345,26.886,0.725,26.886-6.648s-6.79-41.769-14.834-45.791C500.998,474.537,495.259,473.991,489.268,479.564z"/>
</g>
<g>
	<path fill="#FCEAE6" d="M498.987,489.284c2.366,3.866-14.741,32.021-19.622,38.303c-3.063,3.941-23.564,11.077-38.723,13.465
		c-9,1.418-15.442-1.308-17.08-0.614c-4.397,1.864-11.793,1.951-10.055-0.67c1.943-2.931,3.726-4.807,8.577-5.6
		c2.854-0.466,5.704,0.109,8.999-2.13s33.075-14.394,34.674-15.072c1.599-0.678,15.421-29.088,21.834-32.709
		C494.913,480.122,495.918,484.267,498.987,489.284z"/>
</g>
<g>
	<path fill="#FCEAE6" d="M503.657,448.332c-2.447-9.86-7.21-14.515-18.334-13.797c-7.775,0.502-15.802,8.175-13.708,17.935
		c0.788,3.673-0.097,5.754,0.394,8.486c1.037,5.778,2.737,14.137,8.982,13.815c3.015-0.155,11.962,0.366,16.51-2.18
		C504.458,468.696,506.527,459.896,503.657,448.332z"/>
</g>
<g>
	<path fill="#3A0A27" d="M474.657,457.386c-0.138,0.856,0.591,1.381,1.263,1.209c0.785-0.201,0.718-0.782,1.448-0.917
		c0.565-0.105-0.583-0.631-1.668-0.863c-0.667-0.143-1.073-0.162-1.743,0.059C473.189,457.127,474.71,457.057,474.657,457.386z"/>
</g>
<g>
	<path fill="#3A0A27" d="M477.418,454.428c0.565-0.105-0.583-0.631-1.668-0.863c-0.667-0.143-1.073-0.162-1.743,0.059
		C473.239,453.877,476.688,454.564,477.418,454.428z"/>
</g>
<g>
	<path fill="#FCEAE6" d="M475.9,457.994c0.062-0.298,0.49-0.474,0.955-0.393c0.465,0.081,0.792,0.388,0.73,0.686
		c-0.062,0.298-0.49,0.474-0.955,0.393S475.838,458.292,475.9,457.994z"/>
</g>
<g>
	<path fill="#FCEAE6" d="M471.623,463.775c-1.604-0.042-1.845-1.807-0.708-2.409c1.137-0.602,0.616-3.632,1.344-3.67
		C472.987,457.658,474.254,463.843,471.623,463.775z"/>
</g>
<g>
	<path fill="#EF97AD" d="M473.477,466.501c0.699-0.04,1.668,0.154,2.896-0.092c0.339-0.068-0.608,1.711-1.805,1.833
		c-1.612,0.163-0.899-0.988-0.899-0.988S472.646,466.549,473.477,466.501z"/>
</g>
<g>
	<path fill="#B4D9DB" d="M480.889,491.63c0,0,5.698-1.676,9.72,0c4.022,1.676,7.374,7.374,7.374,7.374s6.627-10.979,5.363-14.412
		c-2.346-6.368-9.384-7.709-14.077-5.027C483.47,482.878,480.889,491.63,480.889,491.63z"/>
</g>
<g>
	<path fill="#8A7B77" d="M468.324,445.665c0,2.667,11.333,4.667,14,5.333s3.333,6,4.667,8.667c1.333,2.667,2-2.667,4.667-2.667
		c2.667,0,0,4,2.667,6.667c2.667,2.667,6,3.333,8.667,2.667c2.667-0.667,2-6,2.667-8c0.667-2,0.667-16.667-6-19.333
		c-6.667-2.667-6.001-6.26-14.334-4.463S468.324,440.585,468.324,445.665z"/>
</g>
<g>
	<path fill="#55283C" d="M924.736,545.8c0-17.231-13.969-24.8-31.2-24.8c-17.231,0-31.2,7.569-31.2,24.8
		c0,17.231,13.969,31.2,31.2,31.2C910.767,577,924.736,563.031,924.736,545.8z"/>
</g>
<g>
	<path fill="#55283C" d="M1116.025,545.8c0-17.231-13.969-24.8-31.2-24.8s-31.2,7.569-31.2,24.8c0,17.231,13.969,31.2,31.2,31.2
		S1116.025,563.031,1116.025,545.8z"/>
</g>
<g>
	<circle fill="#FBC58D" cx="1084.825" cy="545.8" r="8"/>
</g>
<g>
	<circle fill="#FBC58D" cx="894.336" cy="545.8" r="8"/>
</g>
<g>
	<g>
		<path fill="#FBC58D" d="M934.5,548c-0.464-22.919-18.581-41.036-41.5-41.5c-22.918-0.464-41.05,19.278-41.5,41.5
			c-0.196,9.679,14.805,9.66,15,0c0.297-14.691,11.809-26.203,26.5-26.5c14.692-0.297,26.212,12.257,26.5,26.5
			C919.695,557.66,934.696,557.679,934.5,548L934.5,548z"/>
	</g>
</g>
<g>
	<g>
		<path fill="#FBC58D" d="M1126.861,548c-0.474-23.321-19.452-41.058-42.5-41.5c-23.047-0.442-42.04,18.841-42.5,41.5
			c-0.197,9.679,14.804,9.659,15,0c0.307-15.097,12.686-26.216,27.5-26.5c14.815-0.284,27.202,11.829,27.5,26.5
			C1112.057,557.659,1127.058,557.679,1126.861,548L1126.861,548z"/>
	</g>
</g>
<g>
	<path fill="#B4D9DB" d="M1005,487c0,2.761-2.239,5-5,5l0,0c-2.761,0-5-2.239-5-5v-78c0-2.761,2.239-5,5-5l0,0c2.761,0,5,2.239,5,5
		V487z"/>
</g>
<g>
	<path fill="#FCEAE6" d="M968.99,437.665c-2.447-9.86-7.21-14.515-18.334-13.797c-7.775,0.502-15.802,8.175-13.708,17.935
		c0.788,3.673-0.097,5.754,0.394,8.486c1.037,5.778,2.737,14.137,8.982,13.815c3.015-0.155,11.962,0.366,16.51-2.18
		C969.792,458.029,971.86,449.229,968.99,437.665z"/>
</g>
<g>
	<path fill="#3A0A27" d="M939.99,446.72c-0.138,0.856,0.591,1.381,1.263,1.209c0.785-0.201,0.718-0.782,1.448-0.917
		c0.565-0.105-0.583-0.631-1.668-0.863c-0.667-0.143-1.073-0.162-1.743,0.059C938.522,446.46,940.044,446.39,939.99,446.72z"/>
</g>
<g>
	<path fill="#3A0A27" d="M942.752,443.761c0.565-0.105-0.583-0.631-1.668-0.863c-0.667-0.143-1.073-0.162-1.743,0.059
		C938.573,443.21,942.022,443.897,942.752,443.761z"/>
</g>
<g>
	<path fill="#FCEAE6" d="M941.233,447.327c0.062-0.298,0.49-0.474,0.955-0.393s0.792,0.388,0.73,0.686
		c-0.062,0.298-0.49,0.474-0.955,0.393S941.171,447.625,941.233,447.327z"/>
</g>
<g>
	<path fill="#FCEAE6" d="M936.956,453.108c-1.604-0.042-1.845-1.807-0.708-2.409c1.137-0.602,0.616-3.632,1.344-3.67
		C938.32,446.992,939.588,453.177,936.956,453.108z"/>
</g>
<g>
	<path fill="#EF97AD" d="M938.811,455.835c0.699-0.04,1.668,0.154,2.896-0.092c0.339-0.068-0.608,1.711-1.805,1.833
		c-1.612,0.163-0.899-0.988-0.899-0.988S937.98,455.882,938.811,455.835z"/>
</g>
<g>
	<path fill="#E53F60" d="M955.066,422.132c-13.449-0.179-15.461,6.1-16.978,7.29c-4.042,3.171-2.372,5.879-2.372,5.879
		c0.006,3.475,5.426,3.838,11.917,4.892c2.29,0.372,2.78,24.819,13.773,28.74c12.304,4.388,19.467-0.548,21.908-3.968
		c2.741-3.841-0.171-10.778-4.703-15.547C971.162,441.577,973.204,422.374,955.066,422.132z"/>
</g>
<g>
	<path fill="#B4D9DB" d="M913.555,476.15c0.753,1.629,0.042,3.561-1.587,4.313l0,0c-1.629,0.753-3.561,0.042-4.313-1.587
		l-6.71-14.525c-0.753-1.629-0.042-3.561,1.587-4.313l0,0c1.629-0.753,3.561-0.042,4.313,1.587L913.555,476.15z"/>
</g>
<g>
	<path fill="#FFFFFF" d="M901.1,412c0,0,10.9,3.5,9.9,6.5s-22,53-22,53l-10.5-2.5c0,0,4.666-16.359,7-22.5
		C888.916,437.516,901.1,412,901.1,412z"/>
</g>
</svg>
